<?xml version="1.0" standalone="no"?>
<!DOCTYPE svg PUBLIC "-//W3C//DTD SVG 20010904//EN"
 "http://www.w3.org/TR/2001/REC-SVG-20010904/DTD/svg10.dtd">
<svg version="1.0" xmlns="http://www.w3.org/2000/svg"
 width="300.000000pt" height="300.000000pt" viewBox="0 0 300.000000 300.000000"
 preserveAspectRatio="xMidYMid meet">
<metadata>
Created by potrace 1.10, written by Peter Selinger 2001-2011
</metadata>
<g transform="translate(0.000000,300.000000) scale(0.100000,-0.100000)"
fill="#000000" stroke="none">
<path d="M1957 2746 l-57 -65 30 -23 c17 -12 40 -38 52 -56 24 -39 47 -39 66
0 7 15 26 37 42 48 37 26 39 56 5 72 -14 6 -25 14 -25 17 0 4 -12 21 -27 39
l-28 33 -58 -65z m80 -37 c6 -6 22 -11 37 -13 36 -4 46 -16 13 -16 -34 0 -67
-32 -68 -67 -1 -26 -1 -26 -11 7 -11 41 -32 60 -67 61 -21 0 -18 3 14 12 36
11 41 17 50 57 l10 44 6 -37 c3 -21 11 -43 16 -48z"/>
<path d="M1201 2754 c-24 -20 -34 -23 -49 -15 -15 8 -23 6 -36 -8 -21 -23 -20
-38 2 -50 14 -7 25 -6 41 6 21 14 24 14 52 -13 16 -15 29 -31 29 -34 0 -4 -24
-17 -52 -30 -29 -13 -65 -31 -80 -42 -14 -10 -31 -18 -37 -18 -18 0 5 44 30
57 l24 13 -27 0 c-16 0 -28 5 -28 10 0 6 12 10 28 11 25 0 26 1 6 10 -11 6
-28 22 -37 37 l-16 27 -1 -25 c-1 -21 -2 -23 -13 -10 -10 13 -15 11 -38 -12
-26 -26 -26 -27 -5 -33 19 -7 18 -8 -9 -15 -16 -4 -26 -8 -21 -9 5 0 0 -12
-13 -24 -38 -41 3 -87 43 -48 19 20 19 21 1 41 -10 11 -13 20 -8 20 6 0 18
-10 26 -22 13 -19 16 -20 16 -6 1 9 6 20 12 23 7 5 9 -4 7 -26 -2 -28 -19 -49
-87 -114 -190 -181 -276 -368 -287 -620 -5 -109 -4 -124 15 -160 l22 -40 -22
-17 c-25 -21 -43 -23 -56 -6 -5 8 -6 84 -2 188 4 99 3 179 -1 184 -6 5 -1 16
11 27 11 9 26 42 34 73 18 70 59 166 91 217 13 21 24 46 24 54 0 11 7 15 22
13 16 -2 28 7 45 32 25 39 26 40 67 73 33 27 30 39 -16 67 -16 10 -37 33 -46
51 -23 47 -51 45 -77 -5 -11 -21 -29 -42 -40 -46 -12 -4 -27 -15 -35 -24 -12
-15 -8 -22 33 -60 26 -24 47 -51 47 -61 0 -15 -3 -16 -12 -7 -7 7 -19 12 -28
12 -9 0 -27 11 -40 25 -28 30 -41 31 -65 5 -18 -20 -18 -21 11 -51 l29 -30
-22 -42 c-24 -44 -29 -57 -73 -179 -25 -68 -27 -78 -14 -97 13 -19 13 -24 -7
-50 -31 -43 -40 -233 -14 -315 14 -44 15 -59 6 -70 -10 -12 -8 -21 9 -44 20
-27 21 -34 10 -67 -10 -30 -10 -42 1 -62 15 -27 57 -53 87 -53 29 0 32 -10 11
-31 -10 -10 -19 -30 -19 -44 0 -14 -8 -29 -19 -34 -10 -6 -21 -17 -24 -26 -8
-19 32 -57 54 -52 14 4 15 1 3 -22 -7 -15 -25 -38 -39 -51 -14 -13 -25 -27
-25 -32 0 -14 83 -108 95 -108 6 0 30 22 54 50 47 54 53 57 73 37 22 -22 142
-103 162 -111 10 -3 25 -1 33 6 11 9 18 7 35 -10 19 -18 20 -23 7 -38 -8 -9
-16 -44 -19 -78 l-5 -61 -22 41 c-83 155 -294 167 -390 22 -25 -37 -28 -51
-28 -123 0 -77 1 -82 38 -132 51 -70 107 -97 191 -91 79 5 131 36 179 108 l35
51 4 -60 c5 -72 26 -101 73 -101 39 0 85 39 85 72 0 20 5 17 43 -25 40 -43 48
-47 89 -47 34 0 50 6 68 25 l23 24 -26 39 c-14 22 -27 46 -29 55 -3 16 42 96
55 97 4 0 7 -44 7 -98 0 -90 2 -100 23 -120 49 -46 127 -12 127 56 0 18 3 32
6 32 3 0 26 -20 51 -44 104 -103 241 -92 334 26 21 27 39 48 40 46 0 -1 2 -23
5 -48 14 -118 154 -123 154 -5 0 25 4 45 10 45 5 0 28 -24 51 -52 69 -88 125
-111 165 -67 17 19 19 38 19 209 0 171 -2 190 -19 209 -44 49 -121 9 -134 -69
l-8 -45 -29 35 c-63 73 -98 100 -131 100 -49 0 -74 -27 -81 -87 l-6 -52 -27
37 c-56 77 -104 102 -192 102 -64 0 -107 -19 -157 -69 -25 -25 -43 -36 -45
-29 -2 7 -9 30 -15 50 -11 33 -10 41 6 63 11 15 24 22 33 18 38 -15 64 -14
132 7 97 29 148 53 239 111 42 27 79 49 82 49 4 0 11 -8 16 -18 8 -16 1 -27
-46 -67 -48 -42 -58 -47 -74 -36 -35 21 -77 -18 -64 -60 12 -36 41 -41 72 -15
18 16 34 22 42 17 18 -11 49 -2 91 25 34 24 34 24 55 4 12 -11 28 -20 37 -20
22 0 51 36 45 55 -11 26 11 17 33 -15 12 -16 26 -30 33 -30 6 0 33 23 59 50
l48 50 -45 56 c-55 67 -61 90 -15 62 22 -14 45 -5 64 25 8 12 5 22 -13 41 -26
28 -26 29 17 131 37 90 56 168 48 206 -4 20 0 39 11 56 14 21 17 50 17 157 -1
128 -9 169 -38 188 -8 5 -7 16 1 38 10 27 9 34 -8 51 -24 24 -41 24 -62 1 -21
-23 -21 -37 0 -61 14 -16 16 -47 17 -193 1 -95 5 -179 9 -186 5 -7 0 -24 -11
-40 -10 -15 -25 -49 -32 -77 -31 -119 -167 -353 -216 -372 -9 -3 -22 1 -30 9
-13 13 -8 23 46 88 73 87 140 222 171 340 42 164 34 403 -15 499 -15 28 -15
29 13 34 33 7 76 46 86 77 4 13 -2 36 -19 64 -22 38 -24 45 -11 56 21 17 19
82 -2 107 -32 36 -65 47 -141 45 -75 -1 -83 5 -40 36 25 18 22 39 -8 58 -14 9
-33 31 -42 48 -14 27 -17 29 -20 10 -6 -37 15 -72 47 -79 17 -4 31 -10 31 -15
0 -4 -9 -6 -19 -3 -26 7 -61 -30 -62 -64 -1 -26 -1 -26 -11 7 -12 45 -17 49
-58 54 l-34 4 33 -27 c22 -18 32 -34 29 -47 -5 -29 -36 -29 -59 0 -25 31 -40
33 -57 5 -11 -17 -11 -23 0 -36 10 -13 9 -18 -6 -29 -17 -12 -21 -11 -33 12
-17 35 -17 41 7 71 11 14 20 31 20 38 0 36 -128 112 -228 136 -59 15 -67 22
-51 46 25 41 -21 74 -52 37 -10 -13 -10 -19 0 -36 11 -17 10 -22 -1 -29 -21
-14 -28 -11 -55 22 -15 17 -37 35 -50 40 -35 13 -87 -12 -104 -49 -11 -26 -16
-29 -33 -20 -14 7 -35 7 -73 -2 -30 -6 -57 -9 -60 -6 -3 3 4 17 16 32 26 34
26 35 -4 68 -30 33 -45 33 -84 0z m64 -19 c19 -15 19 -15 -1 -35 -20 -21 -20
-21 -38 -1 -15 17 -16 22 -4 35 16 19 18 19 43 1z m289 -48 c11 -8 19 -26 19
-42 0 -57 -74 -74 -102 -24 -29 53 34 102 83 66z m-497 -43 c8 -21 -13 -42
-28 -27 -13 13 -5 43 11 43 6 0 13 -7 17 -16z m345 -28 c4 -22 0 -25 -61 -42
-36 -9 -106 -38 -156 -63 -74 -37 -107 -63 -191 -146 -92 -91 -106 -110 -152
-205 -65 -137 -83 -212 -83 -360 0 -120 -3 -130 -40 -130 -15 0 -10 248 6 319
36 153 105 279 215 395 109 114 220 185 365 232 88 29 92 29 97 0z m312 8 c76
-19 236 -93 236 -109 0 -34 -26 -33 -100 4 -41 21 -106 46 -145 56 -38 10 -72
20 -73 21 -5 4 8 44 15 44 3 0 33 -7 67 -16z m-863 -101 c6 -7 27 -13 45 -13
19 0 34 -4 34 -10 0 -5 -13 -10 -28 -10 -42 0 -61 -20 -70 -70 l-8 -45 -7 42
c-9 51 -29 73 -68 73 -16 0 -29 5 -29 10 0 6 13 10 28 10 40 0 61 19 66 60 6
49 7 50 17 6 5 -22 14 -45 20 -53z m771 17 c58 0 308 -112 308 -138 0 -4 -16
-16 -35 -26 -32 -17 -37 -18 -52 -4 -44 38 -149 79 -265 103 -20 4 -28 12 -28
26 0 22 43 64 48 48 2 -5 13 -9 24 -9z m-132 -35 c0 -19 -9 -24 -87 -39 -154
-30 -303 -117 -393 -229 -37 -48 -46 -54 -62 -44 -10 7 -18 15 -18 18 0 17 97
124 153 169 115 94 330 182 384 157 14 -6 23 -19 23 -32z m68 -57 c32 -20 34
-22 16 -35 -16 -12 -21 -10 -41 14 -38 48 -30 55 25 21z m810 -34 c22 -14 29
-48 14 -70 -4 -6 -25 -14 -48 -17 -37 -6 -40 -5 -40 16 1 15 -6 23 -21 25 -33
5 -137 -24 -228 -63 l-79 -35 -23 22 -24 22 34 18 c64 32 192 80 252 94 67 15
129 11 163 -12z m-983 -57 c-184 -78 -192 -82 -200 -107 -8 -27 12 -88 33 -99
10 -5 27 -5 41 0 21 8 23 14 17 48 -5 34 -3 39 19 49 14 6 99 43 189 82 155
67 166 70 195 58 32 -13 31 -13 -141 -87 -95 -41 -182 -82 -193 -92 -19 -19
-19 -19 8 -75 26 -52 28 -74 7 -74 -5 0 -120 -52 -257 -115 -136 -63 -250
-115 -254 -115 -3 0 -4 11 -2 24 4 18 28 35 121 80 65 30 135 62 157 69 23 8
46 25 54 39 13 23 13 29 -2 52 -26 39 -97 29 -97 -14 0 -14 -19 -29 -70 -55
-38 -19 -72 -35 -74 -35 -12 0 38 99 79 155 63 89 144 159 238 205 93 46 172
68 237 69 42 1 34 -4 -105 -62z m-620 14 c3 -5 -8 -31 -24 -57 -40 -61 -88
-180 -97 -233 -7 -43 -27 -62 -45 -44 -7 7 -7 17 0 29 5 11 18 44 27 74 29 96
104 240 123 240 6 0 12 -4 16 -9z m1081 -74 c49 -36 93 -82 146 -153 9 -12
-55 -53 -223 -143 l-96 -51 -11 24 c-11 24 -8 26 46 52 31 14 72 30 90 36 60
17 67 99 10 113 -16 4 -34 27 -57 71 -18 36 -32 66 -30 67 8 6 54 26 60 26 4
1 33 -18 65 -42z m432 10 c8 -9 5 -21 -10 -45 -11 -18 -23 -32 -27 -32 -15 0
-20 13 -11 30 6 11 4 24 -6 38 -14 21 -14 22 14 22 16 0 34 -6 40 -13z m-118
-72 c10 -11 1 -21 -44 -50 -81 -52 -80 -52 -111 1 -22 37 -25 48 -14 55 21 13
39 11 39 -4 0 -8 9 -22 19 -31 18 -17 20 -17 41 4 20 20 20 23 6 39 -13 15
-14 20 -4 28 27 21 43 20 50 -4 4 -13 12 -31 18 -38z m50 41 c0 -8 -8 -17 -17
-20 -20 -8 -37 15 -20 26 19 12 37 9 37 -6z m-517 -67 c20 -35 37 -73 37 -85
0 -17 -35 -36 -207 -115 -270 -122 -345 -160 -357 -181 -8 -13 -5 -29 11 -62
l22 -45 -62 -29 c-52 -24 -62 -26 -65 -13 -9 51 -15 62 -36 76 -23 15 -28 14
-83 -13 -94 -47 -103 -49 -103 -14 0 29 6 32 278 157 152 70 287 134 300 141
28 18 28 52 1 106 -12 23 -18 44 -13 46 5 1 56 25 114 51 58 27 110 48 115 47
6 -2 27 -31 48 -67z m670 60 c12 -7 25 -17 29 -23 22 -33 -7 -86 -48 -86 -52
0 -75 74 -32 104 27 19 24 19 51 5z m-140 -135 c-57 -41 -310 -193 -438 -262
-262 -141 -764 -369 -956 -433 -110 -37 -191 -39 -213 -7 -14 20 -13 25 7 61
20 36 156 157 176 157 5 0 11 -12 14 -27 4 -20 0 -31 -11 -37 -10 -5 -39 -31
-67 -58 l-50 -48 37 0 c69 0 311 98 725 293 262 123 462 232 638 348 l130 85
13 -29 c11 -26 10 -31 -5 -43z m-1285 37 c27 -24 28 -33 0 -82 l-22 -39 -28
27 c-33 32 -34 38 -8 81 23 37 27 38 58 13z m1362 -64 c0 -2 9 -39 20 -83 31
-119 29 -298 -4 -426 -74 -291 -293 -516 -581 -598 -91 -26 -105 -26 -105 3 0
20 9 25 71 40 232 54 444 237 532 458 42 104 59 195 60 309 1 102 -16 226 -35
264 -7 13 -6 21 3 27 14 9 39 12 39 6z m-1431 -64 c-15 -18 -34 -1 -25 22 5
14 9 15 21 5 12 -10 13 -16 4 -27z m1366 -9 c3 -25 9 -56 11 -67 2 -12 6 -46
8 -75 5 -75 -17 -62 -25 14 -6 62 -22 101 -48 121 -14 10 -14 13 3 32 29 32
43 26 51 -25z m213 19 c-5 -26 -38 -29 -38 -4 0 15 6 21 21 21 14 0 19 -5 17
-17z m-1527 -57 c18 -20 8 -46 -23 -62 -73 -37 -95 -78 -62 -115 15 -17 15
-21 1 -50 -21 -44 -4 -89 35 -89 17 0 18 -2 4 -15 -21 -21 -39 -19 -66 10 -22
24 -23 28 -16 142 10 171 15 186 55 194 18 4 38 12 44 19 9 8 13 7 15 -7 2
-10 8 -22 13 -27z m1267 -52 c16 -76 9 -219 -16 -305 -26 -87 -58 -159 -72
-159 -21 0 -20 27 4 92 34 89 48 209 36 301 -5 40 -12 81 -16 91 -5 13 -1 23
11 33 29 21 39 11 53 -53z m-1581 28 c8 -5 8 -22 1 -62 -6 -30 -8 -101 -5
-157 4 -80 2 -103 -8 -103 -7 0 -15 10 -19 23 -13 50 -3 307 13 307 3 0 11 -4
18 -8z m1869 -114 c8 -119 -1 -208 -23 -208 -12 0 -14 13 -8 83 3 45 2 116 -4
157 -7 55 -7 76 2 82 19 11 26 -13 33 -114z m-868 91 c7 -12 12 -23 10 -25 -3
-2 -80 -40 -173 -85 -157 -75 -170 -79 -182 -63 -7 10 -13 23 -13 28 1 9 316
161 340 165 3 1 11 -8 18 -20z m462 3 c0 -5 -27 -21 -60 -37 -35 -17 -59 -34
-56 -41 5 -14 -64 -47 -89 -42 -10 1 -20 8 -22 14 -4 12 73 58 85 50 4 -2 34
10 67 29 65 36 75 39 75 27z m10 -100 c0 -25 -8 -32 -62 -58 -77 -36 -82 -54
-40 -146 l29 -65 -86 -38 c-208 -93 -447 -197 -462 -202 -9 -3 -20 5 -27 22
-11 23 -9 27 11 34 84 34 315 145 330 160 26 26 24 47 -12 135 -18 43 -31 79
-29 81 2 1 23 12 46 24 40 20 45 21 61 7 26 -23 38 -21 142 29 52 24 95 44 97
45 1 0 2 -13 2 -28z m-830 -122 c0 -6 -7 -10 -15 -10 -8 0 -15 8 -15 18 0 9
-3 28 -6 42 -5 22 -3 21 15 -8 12 -18 21 -37 21 -42z m1006 -2 c-10 -62 -26
-72 -26 -17 0 46 5 59 23 59 6 0 7 -17 3 -42z m-170 17 c-3 -8 -8 -37 -12 -65
-7 -57 -19 -72 -28 -36 -3 13 -8 30 -11 38 -6 16 30 78 46 78 6 0 9 -7 5 -15z
m-386 -71 c17 -36 30 -68 30 -70 0 -3 -24 -16 -52 -28 -29 -13 -76 -35 -105
-49 l-52 -25 -31 65 c-16 36 -30 68 -30 72 0 6 187 98 203 100 4 1 21 -29 37
-65z m-673 29 c3 -10 13 -26 22 -36 13 -16 13 -19 1 -27 -11 -7 -17 -3 -23 13
-5 12 -18 32 -29 44 l-21 23 22 0 c12 0 24 -8 28 -17z m-32 -44 c8 -25 12 -21
-52 -53 -64 -32 -71 -32 -75 -3 -3 18 6 27 47 49 61 33 72 34 80 7z m463 -184
c-44 -23 -60 -24 -87 -4 l-29 21 -119 -52 c-65 -29 -140 -63 -168 -77 l-50
-24 -33 38 -33 38 28 12 c23 9 31 8 46 -5 20 -18 44 -12 145 36 42 20 54 31
59 53 3 16 11 29 17 30 6 0 45 17 86 38 l75 38 33 -70 c18 -39 31 -71 30 -72z
m601 122 c12 -15 5 -27 -16 -27 -7 0 -13 9 -13 20 0 23 13 26 29 7z m-1439
-17 c0 -21 -24 -28 -35 -10 -8 14 3 30 21 30 8 0 14 -9 14 -20z m1840 6 c0
-30 -53 -183 -87 -251 -50 -99 -110 -181 -187 -252 -74 -70 -151 -125 -160
-116 -15 15 -3 32 49 67 79 55 187 173 239 262 44 75 84 174 106 262 7 25 17
42 25 42 8 0 15 -7 15 -14z m-244 -10 c8 -20 -33 -109 -46 -101 -14 9 -13 23
8 72 18 45 29 53 38 29z m-173 -85 c-112 -193 -280 -303 -486 -318 -107 -7
-197 10 -197 38 0 11 10 23 23 28 12 5 105 45 206 90 101 44 186 81 190 81 3
0 14 -18 23 -40 12 -28 23 -40 37 -40 33 0 44 33 24 74 -9 20 -15 38 -12 40 6
6 203 94 212 95 5 1 -4 -21 -20 -48z m-863 30 c0 -22 -123 -86 -148 -76 -25 9
-7 26 58 55 70 30 90 35 90 21z m935 -91 c21 -22 26 -33 18 -41 -8 -8 -20 -5
-45 12 -18 13 -34 24 -36 25 -1 1 0 9 4 18 9 24 27 20 59 -14z m-732 -1 c19
-8 22 -16 19 -40 -3 -23 2 -37 22 -58 30 -31 27 -36 -36 -66 -47 -21 -57 -49
-30 -84 l20 -27 -26 -2 c-29 -2 -52 -19 -52 -38 0 -17 -14 -18 -41 -4 -19 10
-18 11 5 33 17 16 26 36 29 72 l5 50 -19 -23 c-14 -18 -16 -29 -9 -48 8 -21 6
-26 -15 -36 -20 -9 -32 -7 -70 13 -25 13 -45 26 -45 29 1 3 35 21 77 40 64 29
72 35 52 40 -22 6 -20 8 24 30 70 35 84 53 66 88 -7 15 -15 30 -17 35 -5 10
13 9 41 -4z m-447 -33 l10 -34 -33 22 c-29 19 -31 22 -16 34 24 17 27 16 39
-22z m404 -7 c7 -11 10 -22 8 -23 -2 -1 -63 -29 -136 -61 l-133 -58 -21 21
-22 21 25 10 c13 5 74 32 134 60 61 27 115 50 122 50 7 1 17 -8 23 -20z m-500
4 c-1 -13 -24 -37 -52 -56 -23 -14 -31 -15 -48 -5 -37 23 -30 36 28 51 73 18
72 18 72 10z m1248 -16 c9 -10 -5 -29 -61 -84 -115 -112 -212 -168 -345 -199
-63 -15 -132 -12 -132 5 0 4 31 12 68 18 140 22 271 92 370 200 70 74 82 82
100 60z m-1153 -62 c26 -33 61 -72 77 -87 26 -24 28 -29 16 -47 -7 -12 -16
-21 -19 -21 -16 0 -177 186 -168 194 7 6 44 24 45 23 1 -1 23 -29 49 -62z
m108 -9 c-29 -37 -42 -35 -64 7 -9 16 -8 18 9 13 10 -4 30 -2 43 3 39 16 41
13 12 -23z m-291 -43 c62 -94 128 -164 208 -224 46 -34 67 -56 63 -65 -6 -17
-27 -6 -103 55 -98 78 -250 267 -235 291 12 19 22 10 67 -57z m129 -15 c44
-49 47 -63 18 -79 -17 -9 -25 -7 -46 13 -14 12 -34 36 -45 51 -20 27 -20 29
-2 42 28 21 33 19 75 -27z m265 -20 c-9 -12 -16 -30 -16 -40 0 -10 -4 -18 -10
-18 -17 0 -50 -43 -50 -65 0 -12 8 -29 18 -37 29 -26 134 -75 210 -98 62 -19
77 -20 103 -10 26 11 32 10 44 -6 9 -12 13 -29 9 -44 -3 -14 -8 -44 -11 -67
-3 -24 -8 -43 -12 -43 -3 0 -18 21 -33 46 -36 59 -89 83 -180 84 -65 0 -68 1
-68 23 0 13 -9 32 -21 42 -16 16 -25 17 -48 8 -24 -8 -30 -7 -40 9 -7 11 -9
28 -6 39 4 13 0 28 -11 40 -16 18 -19 18 -42 3 -33 -22 -49 -5 -31 34 11 26
17 29 44 25 38 -6 58 15 57 57 -1 26 2 29 26 24 15 -3 38 -1 52 5 14 5 26 10
28 10 2 1 -4 -9 -12 -21z m1254 -4 c0 -14 -21 -19 -33 -7 -9 9 13 34 24 27 5
-3 9 -12 9 -20z m-1651 -136 c30 -15 32 -18 15 -23 -39 -13 -49 -23 -55 -56
-4 -23 -7 -27 -8 -11 -2 38 -20 62 -46 62 -14 0 -25 5 -25 10 0 6 6 10 13 10
25 0 51 28 53 56 3 42 6 43 13 4 5 -27 14 -39 40 -52z m1583 40 c2 -28 9 -35
38 -45 35 -11 31 -18 -15 -25 -14 -2 -21 -12 -23 -36 -4 -39 -19 -43 -24 -6
-3 26 -13 36 -53 50 -18 6 -17 7 9 15 33 9 46 24 46 57 0 34 18 26 22 -10z
m-766 10 c3 -4 0 -8 -6 -8 -6 0 -15 -11 -20 -25 -10 -27 -40 -35 -40 -11 0 8
-9 21 -21 29 -15 11 -17 16 -7 20 19 8 88 4 94 -5z m-373 -37 c43 -21 107 -47
142 -56 57 -16 65 -21 65 -42 0 -22 -3 -24 -32 -18 -78 17 -228 77 -265 107
-9 7 -10 16 -2 29 5 10 11 19 12 19 1 0 37 -18 80 -39z m237 15 c65 -13 65
-13 35 -25 -24 -10 -42 -10 -85 -1 -64 14 -72 18 -65 31 8 12 36 11 115 -5z
m118 -82 c47 -33 9 -107 -46 -88 -37 13 -43 65 -10 88 28 20 28 20 56 0z m672
-28 c0 -8 -4 -17 -8 -20 -13 -8 -35 11 -28 23 10 16 36 14 36 -3z m-1103 -32
c8 -21 -13 -42 -28 -27 -13 13 -5 43 11 43 6 0 13 -7 17 -16z m850 0 c8 -21
-13 -42 -28 -27 -13 13 -5 43 11 43 6 0 13 -7 17 -16z m-1057 -103 c112 -57
131 -225 34 -310 -122 -108 -307 -22 -308 144 -1 146 143 233 274 166z m991
-6 c57 -37 84 -88 84 -162 0 -52 -4 -68 -30 -104 -42 -59 -87 -84 -155 -84
-70 0 -120 30 -157 92 -100 171 93 363 258 258z m489 -165 c0 -215 1 -211 -52
-191 -13 5 -61 61 -108 125 l-85 117 -3 -121 c-2 -105 -5 -121 -18 -116 -9 3
-27 6 -40 6 l-24 0 0 185 0 185 38 0 c37 0 42 -4 110 -92 40 -51 78 -102 87
-113 13 -18 14 -10 15 87 l0 107 33 10 c17 5 35 10 40 10 4 1 7 -89 7 -199z
m-1062 170 c34 -21 62 -71 62 -111 0 -33 -29 -85 -55 -99 l-24 -13 45 -65 c25
-35 44 -66 42 -67 -2 -2 -25 -1 -51 2 -47 6 -50 8 -85 64 -31 49 -42 59 -64
59 -27 0 -28 -1 -28 -60 0 -50 -3 -60 -17 -60 -10 0 -28 -3 -40 -6 l-23 -6 0
191 0 191 103 0 c85 0 108 -3 135 -20z m225 -169 l-2 -185 -35 -2 -35 -1 -3
187 -3 187 40 0 40 0 -2 -186z"/>
<path d="M1561 1665 c-41 -20 -72 -38 -69 -41 3 -3 41 13 84 35 97 49 86 53
-15 6z"/>
<path d="M1313 1545 c-58 -26 -74 -44 -20 -21 47 19 94 45 82 45 -5 0 -34 -11
-62 -24z"/>
<path d="M1755 1309 c-22 -4 -67 -9 -100 -10 l-60 -2 50 -7 c63 -8 174 8 154
23 -2 2 -22 0 -44 -4z"/>
<path d="M774 804 c-37 -18 -54 -51 -54 -105 0 -58 42 -99 102 -99 75 0 123
70 98 145 -13 39 -59 75 -95 75 -11 0 -34 -7 -51 -16z m104 -67 c13 -27 2 -74
-21 -89 -41 -26 -97 7 -97 56 0 39 9 53 40 64 33 12 62 1 78 -31z"/>
<path d="M1754 804 c-62 -30 -75 -125 -25 -175 41 -41 106 -41 143 -1 52 55
41 144 -21 176 -37 20 -57 20 -97 0z m94 -52 c17 -22 15 -77 -4 -96 -37 -38
-104 -7 -104 48 0 39 9 53 40 64 29 11 50 6 68 -16z"/>
<path d="M1170 760 l0 -50 54 0 c60 0 86 16 86 54 0 35 -20 46 -82 46 l-58 0
0 -50z"/>
<path d="M1765 2755 c-31 -31 -31 -40 1 -70 34 -31 49 -31 79 0 30 29 31 35 4
69 -26 33 -53 33 -84 1z m74 -25 c6 0 11 -4 11 -10 0 -5 -5 -10 -11 -10 -7 0
-18 -8 -25 -17 -13 -17 -13 -17 -14 0 0 9 -7 17 -15 17 -8 0 -15 5 -15 10 0 6
7 10 15 10 8 0 15 8 15 18 1 16 1 16 14 0 7 -10 18 -18 25 -18z"/>
<path d="M2220 2635 c-23 -24 -23 -25 -5 -45 10 -11 27 -20 38 -20 12 0 31 -9
43 -21 26 -25 60 -19 69 12 8 26 -20 59 -50 59 -12 0 -30 9 -40 20 -23 25 -27
25 -55 -5z m123 -52 c9 -9 -13 -34 -24 -27 -14 8 -11 34 4 34 8 0 17 -3 20 -7z"/>
<path d="M2125 2621 c-3 -11 -23 -34 -43 -51 -38 -31 -29 -40 22 -20 18 6 27
19 32 45 7 40 0 58 -11 26z"/>
<path d="M558 1329 c-24 -13 -23 -46 1 -58 14 -8 23 -6 37 10 17 19 17 20 -2
39 -14 14 -23 16 -36 9z"/>
<path d="M2454 1326 c-20 -15 -14 -43 12 -53 20 -8 47 19 39 39 -9 23 -30 29
-51 14z"/>
<path d="M796 1045 c-32 -32 -9 -84 33 -70 31 10 35 36 8 63 -22 22 -25 22
-41 7z"/>
<path d="M834 426 c-36 -36 -43 -70 -23 -109 29 -57 103 -75 145 -36 l23 21
31 -22 c39 -28 84 -28 122 0 l28 21 29 -22 c23 -17 33 -19 49 -10 15 8 28 8
47 -1 22 -10 28 -8 50 12 l24 22 27 -21 c21 -16 41 -21 88 -21 34 0 67 5 74
12 9 9 18 9 37 0 39 -18 84 -14 112 8 l25 20 30 -25 c36 -30 86 -33 119 -6 23
18 24 18 57 1 56 -30 132 5 135 64 2 34 15 33 22 -1 8 -37 18 -55 38 -67 22
-14 54 16 67 64 6 21 17 43 25 50 22 18 18 36 -11 59 -33 26 -109 29 -135 5
-17 -15 -20 -15 -43 0 -31 20 -66 21 -92 1 -25 -19 -48 -19 -64 0 -17 20 -98
20 -121 -1 -16 -14 -20 -14 -41 0 -22 14 -26 14 -46 0 -19 -13 -24 -13 -47 2
-25 16 -27 16 -49 -5 -28 -26 -31 -26 -63 -1 -33 25 -69 25 -111 0 l-33 -20
-26 20 c-19 15 -30 17 -44 10 -10 -6 -36 -8 -57 -4 -28 4 -41 2 -51 -10 -17
-21 -28 -20 -58 4 -33 26 -73 25 -107 -1 -15 -11 -32 -18 -39 -15 -7 4 -23 13
-37 21 -40 23 -69 18 -106 -19z m90 -6 c17 -6 24 -14 20 -24 -5 -12 -11 -13
-24 -6 -37 20 -69 -14 -49 -52 6 -12 17 -18 27 -15 10 2 23 6 31 8 25 7 23
-21 -3 -32 -54 -25 -112 33 -88 86 10 21 26 33 59 44 1 1 13 -3 27 -9z m199
-22 c22 -27 22 -49 -4 -82 -26 -33 -62 -34 -94 -1 -27 26 -31 46 -14 76 22 42
79 45 112 7z m128 -10 l38 -43 1 41 c0 29 4 41 15 41 12 0 15 -15 15 -69 0
-37 -4 -68 -9 -68 -5 0 -23 16 -40 35 -17 19 -33 35 -36 35 -3 0 -5 -16 -5
-35 0 -24 -5 -35 -15 -35 -12 0 -15 14 -15 70 0 39 3 70 6 70 4 0 24 -19 45
-42z m222 31 c29 -13 48 -49 40 -77 -3 -14 1 -22 16 -27 42 -13 20 -24 -43
-22 -47 2 -71 8 -85 22 -30 26 -27 69 5 94 31 24 35 25 67 10z m137 -45 c0
-31 5 -46 15 -50 26 -10 45 16 45 62 0 32 4 44 15 44 11 0 15 -12 15 -50 0
-77 -45 -111 -98 -74 -18 12 -22 25 -22 69 0 44 3 53 15 49 10 -4 15 -20 15
-50z m395 46 c35 -13 22 -33 -16 -25 -41 9 -37 -11 6 -29 38 -16 44 -36 18
-61 -12 -12 -26 -15 -51 -11 -40 6 -47 11 -38 25 4 6 20 8 35 5 42 -9 47 12 6
26 -27 9 -35 17 -35 35 0 13 8 29 18 34 22 13 25 13 57 1z m195 -16 c0 -8 -10
-14 -25 -14 -23 0 -25 -3 -25 -50 0 -38 -4 -50 -15 -50 -11 0 -15 12 -15 50 0
43 -3 50 -20 50 -12 0 -20 7 -20 18 0 15 8 17 60 14 43 -3 60 -8 60 -18z
m-330 1 c0 -11 -11 -15 -40 -15 -22 0 -40 -4 -40 -10 0 -5 16 -10 35 -10 24 0
35 -5 35 -15 0 -10 -11 -15 -35 -15 -19 0 -35 -4 -35 -10 0 -5 18 -10 40 -10
29 0 40 -4 40 -15 0 -12 -13 -15 -55 -15 l-55 0 0 65 0 65 55 0 c42 0 55 -3
55 -15z"/>
<path d="M1046 384 c-9 -8 -16 -19 -16 -24 0 -13 30 -40 44 -40 16 0 36 20 36
36 0 14 -27 44 -40 44 -5 0 -16 -7 -24 -16z"/>
<path d="M1428 389 c-31 -18 -16 -69 20 -69 11 0 12 3 3 13 -15 19 -2 28 21
16 16 -9 19 -8 16 6 -5 27 -40 46 -60 34z"/>
<path d="M637 392 c-22 -24 -21 -45 1 -65 36 -33 102 -10 102 35 0 42 -73 63
-103 30z m73 -32 c0 -15 -7 -20 -29 -20 -31 0 -47 13 -36 30 3 6 19 10 36 10
22 0 29 -5 29 -20z"/>
<path d="M2300 388 c-25 -27 -25 -33 0 -58 26 -26 64 -25 90 2 25 27 25 33 0
58 -26 26 -64 25 -90 -2z m75 -28 c0 -18 -43 -26 -57 -12 -16 16 2 33 30 30
16 -2 27 -9 27 -18z"/>
</g>
</svg>
